<svg version="1.0" width="600" height="346.644" xmlns="http://www.w3.org/2000/svg"><defs><linearGradient id="a"><stop style="stop-color:#ccc;stop-opacity:1" offset="0"/><stop style="stop-color:#f2f2f2;stop-opacity:1" offset=".5"/><stop style="stop-color:#ccc;stop-opacity:1" offset="1"/></linearGradient></defs><path style="fill:#ccc" d="m487.977 30.398-20.926-9.226 4.744-6.631 16.802 7.315Z"/><path style="fill:#999" d="m471.523 38.745.617-8.639 12.21-6.122 2.4 7.036Z"/><path style="fill:#ccc" d="m502.589 45.191-21.559-9.618 4.788-6.67 17.312 7.627Z"/><path style="fill:#999" d="m502.589 45.191.541-8.66 20.656-10.689 2.294 7.05Z"/><path style="fill:#ccc" d="m521.347 58.722-22.22-9.983 5.248-6.91 17.843 7.915Z"/><path style="fill:#999" d="m521.347 58.722.87-8.978 25.519-13.643 2.259 7.124Z"/><path style="fill:#ccc" d="m471.523 38.745-20.952-9.446 4.744-6.682 16.825 7.49Z"/><path style="fill:#999" d="m454.672 47.294.613-8.738 12.507-6.27 2.476 7.096Z"/><path style="fill:#ccc" d="m485.665 54.052-21.592-9.856 4.892-6.775 17.34 7.816Z"/><path style="fill:#999" d="m485.665 54.052.64-8.815 12.345-6.389 2.41 7.143Z"/><path style="fill:#ccc" d="m504.248 67.972-22.26-10.238 5.047-6.856 17.877 8.118Z"/><path style="fill:#999" d="m504.248 67.972.664-8.976 12.413-6.636 2.4 7.239Z"/><path style="fill:#ccc" d="m454.672 47.294-20.974-9.674 4.744-6.734 16.843 7.67Z"/><path style="fill:#999" d="m437.41 56.052.608-8.839 12.813-6.424 2.555 7.157Z"/><path style="fill:#ccc" d="M468.62 62.977 447 52.877l4.893-6.827 17.362 8.009Z"/><path style="fill:#999" d="m487.104 77.245.661-9.082 12.725-6.803 2.481 7.302ZM468.62 62.977l.635-8.918 12.652-6.547 2.488 7.205Z"/><path style="fill:#ccc" d="m487.104 77.245-22.295-10.494 5.05-6.91 17.906 8.322Z"/><path style="fill:#999" d="m451.148 72.125.632-9.024 12.968-6.71 2.57 7.267Z"/><path style="fill:#ccc" d="m469.524 86.755-22.325-10.761 5.05-6.965 17.931 8.535Z"/><path style="fill:#999" d="m469.524 86.755.656-9.191 13.05-6.977 2.565 7.366Z"/><path style="fill:#ccc" d="m437.41 56.052-20.992-9.911 4.743-6.786 16.857 7.858Z"/><path style="fill:#999" d="m419.72 65.026.603-8.942 13.131-6.583 2.638 7.22Z"/><path style="fill:#ccc" d="m451.148 72.125-21.642-10.352 4.893-6.88 17.38 8.208Z"/><path style="fill:#999" d="m433.235 81.504.627-9.131 13.297-6.881 2.655 7.331Z"/><path style="fill:#ccc" d="M419.72 65.026 398.716 54.87l4.74-6.84 16.867 8.054Z"/><path style="fill:#999" d="m401.586 74.225.599-9.047 13.46-6.749 2.724 7.282Z"/><path style="fill:#ccc" d="M433.235 81.504 411.576 70.89l4.89-6.934 17.396 8.417Z"/><path style="fill:#ccc" d="m451.49 96.511-22.35-11.04 5.05-7.019 17.952 8.756Z"/><path style="fill:#999" d="m432.983 106.522.648-9.418 13.739-7.345 2.742 7.497Zm-18.112-15.403.621-9.241 13.633-7.054 2.742 7.396Z"/><path style="fill:#ccc" d="m382.992 83.658-21.007-10.674 4.728-6.947 16.873 8.465Zm18.594-9.433-21.009-10.41 4.736-6.893 16.872 8.256Z"/><path style="fill:#999" d="m382.992 83.658.594-9.156 13.803-6.92 2.812 7.346Z"/><path style="fill:#ccc" d="m414.871 91.119-21.67-10.885 4.887-6.989 17.404 8.633Z"/><path style="fill:#999" d="m396.022 100.988.617-9.354 13.994-7.241 2.835 7.46Zm-32.102-7.655.588-9.266 14.16-7.099 2.904 7.41Z"/><path style="fill:#ccc" d="m432.983 106.522-22.366-11.328 5.048-7.075 17.966 8.985Z"/><path style="fill:#999" d="m413.987 116.797.643-9.535 14.103-7.54 2.836 7.564Z"/><path style="fill:#ccc" d="m396.022 100.988-21.673-11.167 4.881-7.045 17.409 8.858Z"/><path style="fill:#ccc" d="M413.987 116.797 391.61 105.17l5.044-7.13 17.976 9.222Z"/><path style="fill:#999" d="m394.48 127.349.637-9.655 14.484-7.743 2.934 7.631Z"/><path style="fill:#ccc" d="m430.052 134.753-23.123-12.16 5.216-7.227 18.577 9.647Z"/><path style="fill:#999" d="m376.677 111.117.61-9.47 14.364-7.432 2.931 7.527Z"/><path style="fill:#ccc" d="m394.48 127.349-22.38-11.94 5.038-7.186 17.98 9.47Z"/><path style="fill:#999" d="m374.444 138.188.63-9.779 14.879-7.954 3.037 7.7Z"/><path style="fill:#ccc" d="m410.315 145.796-23.134-12.494 5.21-7.283 18.587 9.912Z"/><path style="fill:#999" d="m390.018 157.152.658-9.994 15.073-8.335 3.056 7.818Z"/><path style="fill:#ccc" d="m363.92 93.333-21-10.948 4.721-7.001 16.867 8.683Z"/><path style="fill:#999" d="m344.352 103.261.582-9.38 14.528-7.284 3.002 7.476Z"/><path style="fill:#ccc" d="m376.677 111.117-21.67-11.461 4.874-7.1 17.407 9.09Z"/><path style="fill:#999" d="m356.816 121.516.605-9.59 14.746-7.63 3.032 7.595Z"/><path style="fill:#ccc" d="m344.352 103.261-20.984-11.233 4.71-7.057 16.856 8.91Z"/><path style="fill:#999" d="m324.277 113.445.574-9.496 14.905-7.473 3.102 7.543Z"/><path style="fill:#ccc" d="m356.816 121.516-21.658-11.766 4.864-7.156 17.399 9.333Z"/><path style="fill:#ccc" d="m374.444 138.188-22.377-12.264 5.03-7.244 17.977 9.73Z"/><path style="fill:#999" d="m353.854 149.326.623-9.905 15.29-8.175 3.145 7.77Z"/><path style="fill:#ccc" d="m324.277 113.445-20.961-11.529 4.697-7.112 16.838 9.145Z"/><path style="fill:#999" d="m303.657 123.906.567-9.616 15.312-7.677 3.207 7.61Z"/><path style="fill:#ccc" d="m303.657 123.906-20.93-11.837 4.683-7.168 16.813 9.39Zm32.763 8.289-21.64-12.083 4.853-7.213 17.383 9.586Z"/><path style="fill:#999" d="m282.477 134.651.558-9.738 15.728-7.886 3.317 7.679Z"/><path style="fill:#ccc" d="m282.477 134.651-20.89-12.157 4.668-7.226 16.78 9.645Z"/><path style="fill:#999" d="m336.42 132.195.596-9.71 15.146-7.837 3.136 7.662Zm-75.705 13.496.55-9.864 16.161-8.102 3.432 7.747Z"/><path style="fill:#ccc" d="m293.926 154.444-21.573-12.758 4.822-7.327 17.332 10.122Zm21.537-11.276-21.61-12.415 4.838-7.27 17.362 9.85Z"/><path style="fill:#999" d="m315.463 143.168.59-9.836 15.562-8.052 3.245 7.732Zm-21.537 11.276.581-9.963 15.995-8.276 3.36 7.802Z"/><path style="fill:#ccc" d="m332.687 160.776-22.34-12.954 5.006-7.36 17.95 10.279Z"/><path style="fill:#999" d="m310.92 172.55.608-10.168 16.167-8.643 3.374 7.912Z"/><path style="fill:#ccc" d="m353.854 149.326-22.364-12.602 5.02-7.3 17.967 9.997Zm36.164 7.826-23.136-12.842 5.205-7.341 18.589 10.189Z"/><path style="fill:#999" d="m332.687 160.776.616-10.035 15.72-8.404 3.256 7.84Z"/><path style="fill:#ccc" d="m369.157 168.823-23.129-13.204 5.195-7.399 18.584 10.477Zm-21.468 12.012-23.112-13.583 5.183-7.458 18.572 10.778Z"/><path style="fill:#999" d="m369.157 168.823.65-10.126 15.492-8.567 3.167 7.89Zm-21.468 12.012.643-10.263 15.945-8.817 3.284 7.961Z"/><path style="fill:#ccc" d="M260.715 145.691 239.877 133.2l4.647-7.283 16.74 9.91Z"/><path style="fill:#999" d="m271.782 166.039.572-10.095 16.447-8.51 3.478 7.873Zm-58.498 3.714 1.009-10.377 39.918-20.012 4.104 7.545Z"/><path style="fill:#ccc" d="m271.782 166.039-21.524-13.118 4.803-7.385 17.293 10.408Z"/><path style="fill:#999" d="m263.054 170.608-3.084-8.256 6.395-3.309 3.55 7.973Z"/><path style="fill:#ccc" d="m288.528 184.664-22.265-13.705 4.972-7.475 17.891 10.875Z"/><path style="fill:#999" d="m285.246 215.77 1.102-10.923 55.858-30.887 3.775 7.83Zm-24.849-15.889 1.07-10.735 22.567-12.065 3.064 8.356Z"/><path style="fill:#ccc" d="m184.528 184.342-20.588-13.694 4.56-7.474 16.543 10.866Zm-24.557 12.457-20.483-14.093 4.527-7.533 16.46 11.184Z"/><path style="fill:#999" d="m231.362 245.918.593-10.993 18.459-10.207 3.946 8.333Zm-46.834-61.576.515-10.302 17.724-8.885 3.846 7.982Zm-24.557 12.457.504-10.442 18.242-9.145 3.985 8.056Zm-25.283 12.827.49-10.586 18.784-9.417 4.13 8.13Z"/><path style="fill:#ccc" d="m103.246 225.577-20.2-15.038 4.439-7.662 16.234 11.935Z"/><path style="fill:#999" d="m103.246 225.577.473-10.765 19.469-9.76 4.314 8.22Z"/><path style="fill:#ccc" d="m125.883 242.43-20.96-15.605 4.614-7.736 16.847 12.387Z"/><path style="fill:#999" d="m149.39 259.929.531-11.15 19.68-10.52 4.304 8.409Zm-23.507-17.499.501-10.954 19.577-10.13 4.311 8.314Z"/><path style="fill:#ccc" d="m173.817 278.114-22.62-16.84 5-7.88 18.183 13.368Zm-24.427-18.185-21.766-16.204 4.8-7.809 17.497 12.864Z"/><path style="fill:#999" d="m146.345 293.484.548-11.523 20.418-11.29 4.467 8.584Zm-24.28-18.774.516-11.314 20.307-10.856 4.473 8.487Zm-23.35-18.055.485-11.113 20.19-10.447 4.475 8.391ZM76.24 239.277l.458-10.918 20.067-10.06 4.474 8.296Z"/><path style="fill:#ccc" d="M19.67 267.976 0 251.493l4.282-7.842 15.81 13.086Zm398.531-97.819-23.939-13.246 5.482-7.454 19.235 10.509Zm119.911-95.862L515.19 63.882l5.206-6.893 18.41 8.257Zm-88.842 49.706-23.105-11.84 5.218-7.17 18.562 9.393Zm11.793-105.455-13.546-5.973 3.946-6.87 10.876 4.736ZM231.279 278.451l-23.65-16.851 5.252-7.883 19.012 13.378ZM410.414 43.322l-13.575-6.409 3.94-7.044 10.9 5.081Zm-64.804 31.7-13.563-6.99 3.916-7.26 10.894 5.542Zm47.1-23.04-13.577-6.564 3.935-7.105 10.902 5.205Zm-160.856 78.686-13.42-8.068 3.836-7.622 10.781 6.4Zm272.091-37.256-23.013-10.951 5.216-7.002 18.484 8.685Zm-197.481.76-13.533-7.352 3.895-7.389 10.87 5.831ZM146.345 293.484l-22.483-17.385 4.955-7.94 18.076 13.802Zm-37.809-102.492-13.085-9.323 3.691-7.986 10.515 7.398Zm177.589-86.871-13.51-7.544 3.882-7.453 10.85 5.983ZM133.665 178.7l-13.169-9.06 3.726-7.915 10.581 7.19Zm151.581 37.07-23.008-14.712 5.618-7.88 18.492 11.67Zm-102.345-3.194-21.23-14.608 4.7-7.605 17.062 11.593Zm156.402 3.291-23.909-14.716 5.824-7.881 19.216 11.672ZM122.065 274.71l-21.622-16.719 4.756-7.868 17.382 13.273ZM326.286 84.475l-13.551-7.167 3.907-7.324 10.883 5.684Zm-168.2 82.279-13.243-8.808 3.757-7.844 10.64 6.99ZM427.698 34.868l-13.569-6.259 3.943-6.985 10.895 4.962Zm-270.202 191.01-21.119-15.048 4.664-7.664 16.973 11.943ZM521.242 83.734l-22.97-10.676 5.212-6.948 18.449 8.467Zm-313.68 115.929-21.327-14.186 4.732-7.546 17.139 11.258Zm74.349 49.454-23.802-15.833 5.307-7.763 19.133 12.567Zm-21.514-49.236L215 170.851l5.247-7.718 41.22 26.013Z"/><path style="fill:#999" d="m451.49 96.511.652-9.303 13.388-7.158 2.65 7.431Z"/><path style="fill:#ccc" d="m98.715 256.655-20.81-16.091 4.568-7.796L99.2 245.542ZM554.744 64.99l-22.87-10.155 4.898-6.677 18.368 8.056ZM171.61 313.019l-23.396-18.09 5.166-8.014 18.812 14.366Zm85.383-49.466-23.734-16.33 5.282-7.823 19.078 12.963Zm-70.446-110.721-13.319-8.52 3.79-7.759 10.7 6.759Zm281.426-39.295-23.08-11.532 5.219-7.113 18.54 9.147Z"/><path style="fill:#999" d="m70.684 271.331.47-11.276 20.83-10.78 4.65 8.47Z"/><path style="fill:#ccc" d="m134.688 209.626-20.365-14.51 4.49-7.592 16.365 11.516Zm176.332 22.626-23.865-15.26 5.82-7.963 19.182 12.105Zm-101.51-90.654-13.373-8.288 3.814-7.69 10.744 6.575ZM76.24 239.277 56.197 223.78l4.392-7.723 16.109 12.302Zm177.364-119.248-13.46-7.856 3.854-7.555 10.813 6.232Zm-40.32 49.724-20.696-13.233 5.075-7.638 16.63 10.494ZM48.395 253.404l-19.867-15.98 4.34-7.781 15.968 12.684ZM310.92 172.55l-22.307-13.321 4.99-7.417 17.925 10.57Zm55.666 27.511-23.935-14.2 5.823-7.799 19.235 11.262Zm26.315-15.246-23.944-13.71 5.821-7.719 19.24 10.872Zm-161.539 61.103-22.853-15.723 5.077-7.75 18.369 12.48ZM374.57 60.856l-13.575-6.727 3.929-7.165 10.902 5.334Zm111.62 42.489L463.14 92.11l5.218-7.058 18.515 8.912Z"/><path style="fill:#999" d="m231.854 130.668 1.197-9.29 16.153-7.815 2.782 7.258Zm74.61-36.496 1.231-8.91 14.718-7.12 2.397 7.055ZM117.967 309.361l.531-11.698 21.093-11.664 4.648 8.663Z"/><path style="fill:#ccc" d="M93.857 289.969 72.399 272.71l4.706-7.928 17.251 13.704Z"/><path style="fill:#999" d="m48.395 253.404.44-11.077 20.693-10.374 4.644 8.374ZM461.063 18.546l1.276-8.107 11.954-5.784 1.679 6.598Zm93.681 46.444.396-8.776 17.263-9.546 2.22 7.2ZM449.27 124.001l.675-9.617 13.886-7.679 2.75 7.61Zm36.92-20.656.683-9.381 13.182-7.29 2.568 7.477Zm-328.104 63.409 1.154-9.663 17.637-8.534 3.185 7.447Zm123.825 82.363.638-11.029 17.95-10.278 3.776 8.35Zm-28.307-129.088 1.207-9.18 15.72-7.605 2.666 7.2ZM64.722 305.73l.48-11.658 21.657-11.578 4.85 8.637Zm29.135-15.761.5-11.483 20.965-11.209 4.65 8.566Z"/><path style="fill:#ccc" d="m70.684 271.331-20.64-16.6 4.518-7.855 16.591 13.179Z"/><path style="fill:#999" d="m392.71 51.982 1.26-8.464 13.141-6.358 1.984 6.808Zm-47.1 23.04 1.247-8.708 13.99-6.77 2.206 6.946Zm158.335 18.39.687-9.268 12.84-7.1 2.481 7.41Zm-215.417 91.252.598-10.305 16.633-8.893 3.497 7.985Zm22.492 47.588 1.137-11.118 21.074-12.067 4.05 7.972Zm-24.895-128.131 1.223-9.014L302.45 87.8l2.5 7.112Zm-99.578 48.711 1.172-9.52 17.057-8.253 3.026 7.375ZM133.665 178.7l1.138-9.785 18.143-8.779 3.324 7.506Zm-25.129 12.292 1.121-9.91 18.67-9.034 3.47 7.566Zm321.516-56.239.67-9.74 14.27-7.89 2.85 7.678Zm-63.466 65.308 1.123-10.737 19.605-11.226 3.704 7.808Zm-135.307 78.39.614-11.356 19.109-10.942 4.082 8.506Zm108.024-62.584 1.131-10.925 20.328-11.64 3.872 7.89Zm53.598-31.052 1.118-10.557 18.934-10.842 3.547 7.727ZM374.57 60.856l1.256-8.558 13.464-6.515 2.068 6.86Zm35.844-17.534 1.265-8.372 12.828-6.206 1.903 6.754Zm-.099 102.474.663-9.865 14.656-8.104 2.95 7.748Zm57.658-32.259.68-9.498 13.523-7.478 2.657 7.543ZM143.072 329.552l.565-11.92 21.214-12.148 4.642 8.762ZM427.698 34.868l1.269-8.282 12.526-6.061 1.825 6.702ZM171.61 313.019l.582-11.738 47.486-27.192 4.281 8.602Z"/><path style="fill:#ccc" d="m576.776 78.288-23.589-10.524 5.267-6.86 18.945 8.347Z"/><path style="fill:#999" d="m521.242 83.734.69-9.157 12.524-6.925 2.4 7.346ZM209.51 141.598l1.185-9.403 16.596-8.03 2.9 7.316ZM19.67 267.976l.423-11.239 21.348-10.703 4.82 8.452Zm137.826-42.098.518-10.769 18.876-9.767 4.123 8.222Zm330.481-195.48.62-8.542 11.926-5.98 2.326 6.977Zm50.135 43.897.694-9.048 12.206-6.75 2.321 7.282ZM256.993 263.553l.626-11.19 18.516-10.602 3.926 8.428ZM560.037 87.985l.721-9.205 12.224-7 2.297 7.375Z"/><path style="fill:#ccc" d="m560.037 87.985-23.651-10.796 5.376-6.972 18.996 8.563Z"/><path style="fill:#999" d="m534.004 103.067.61-9.317 21.612-12.375 2.275 7.5Zm42.772-24.779.623-9.037 20.422-11.694L600 64.832Z"/><path style="fill:#ccc" d="M534.004 103.067 510.267 91.84l5.28-6.996 19.067 8.906Z"/><path style="fill:#999" d="m207.562 199.663.544-10.474 17.791-9.206 3.834 8.073ZM326.286 84.475l1.239-8.807 14.347-6.942 2.3 7ZM182.901 212.576l.532-10.62 18.321-9.48 3.975 8.147Zm-9.084 65.538.563-11.352 19.774-10.935 4.296 8.505Z"/><path style="fill:#ccc" d="m143.072 329.552-23.249-18.698 5.12-8.072 18.694 14.85Z"/><path style="fill:#999" d="m113.571 346.644.533-12.1 21.943-12.565 4.85 8.834Z"/><path style="fill:#ccc" d="m64.722 305.73-43.418-36.385 4.46-7.914 39.439 32.64Zm48.849 40.914-47.066-39.44 4.837-8.051 42.762 35.39Zm4.396-37.283-22.326-17.958 4.906-8 17.951 14.26Z"/><path style="fill:#999" d="m418.201 170.157.778-10.191 110.836-63.468 2.583 7.5Z"/><path style="fill:#ececec" d="m463.426 0 10.867 4.654-11.953 5.785-10.877-4.734Zm20.312 8.687 16.785 7.19-11.925 5.978-16.803-7.314Zm-53.134 6.961 10.89 4.877-12.527 6.06-10.895-4.96Zm36.939.977 16.809 7.36-12.211 6.12-16.827-7.488Zm38.97 1.818 17.272 7.399-20.654 10.687-17.313-7.627 20.696-10.459Zm-92.904 5.309 10.899 4.992-12.828 6.207-10.9-5.082 12.83-6.117Zm37.354.998 16.83 7.537-12.508 6.27-16.844-7.67Zm78.987 3.732 17.785 7.62-25.517 13.642-17.844-7.914Zm-48.62 2.69 17.32 7.675-12.346 6.39-17.34-7.815 12.365-6.25Zm-85.12.875 10.9 5.113-13.14 6.357-10.903-5.205Zm37.773 1.023 16.846 7.72-12.812 6.423-16.858-7.858Zm120.103 5.752 18.316 7.846-17.261 9.547-18.37-8.057Zm-89.525.824 17.345 7.865-12.65 6.547-17.363-8.007Zm-86.172.899 10.9 5.238-13.463 6.516-10.902-5.334Zm38.205 1.047 16.86 7.91-13.132 6.582-16.867-8.053 13.139-6.44Zm82.877 2.796 17.853 7.971-12.412 6.637-17.877-8.117 12.436-6.49Zm-52.09 3.944 17.367 8.058-12.969 6.711-17.38-8.209Zm131.564 1.138 18.875 8.086-20.42 11.696-18.947-8.348Zm-180.168.854 16.87 8.105-13.461 6.748-16.874-8.255Zm133.858.066 18.377 8.108-12.205 6.75-18.41-8.258Zm-50.03 2.8 17.885 8.17-12.724 6.802-17.907-8.32 12.746-6.653Zm-132.656.913 10.899 5.442-13.99 6.77-10.895-5.544Zm79.824 3.127 17.385 8.262-13.297 6.88-17.394-8.415Zm-49.257 2.043 16.873 8.31-13.803 6.919-16.873-8.465Zm135.52.069 18.42 8.308-12.522 6.928-18.452-8.469 12.553-6.767Zm-50.718 2.869 17.912 8.377-13.05 6.976-17.93-8.535Zm-134.338.935 10.891 5.58-14.346 6.942-10.882-5.684Zm223.041.23 18.961 8.403-12.224 7-18.996-8.562 12.26-6.84Zm-142.294 2.975 17.398 8.473-13.633 7.055-17.404-8.633Zm-49.93 2.096 16.871 8.521-14.16 7.098-16.867-8.681Zm137.217.074 18.457 8.524-12.838 7.1-18.485-8.686Zm-51.42 2.938 17.935 8.592-13.386 7.158-17.952-8.756Zm-136.063.96 10.881 5.721-14.717 7.121-10.87-5.83 14.706-7.011Zm225.686.335 19.01 8.62-21.614 12.376-19.066-8.907 21.67-12.09Zm-143.99 2.949 17.406 8.69-13.994 7.242-17.409-8.86Zm-50.63 2.152 16.866 8.742-14.53 7.284-16.855-8.91 14.52-7.116Zm138.966.076 18.492 8.745-13.182 7.289-18.516-8.913 13.206-7.12Zm-52.149 3.014 17.955 8.815-13.738 7.343-17.967-8.984Zm-137.828.984 10.863 5.872-15.101 7.306-10.852-5.982Zm82.656 3.368 17.408 8.918-14.363 7.431-17.406-9.09 14.361-7.26Zm-51.338 2.209 16.852 8.97-14.906 7.473-16.836-9.145Zm187.832.021 19.078 8.97-110.835 63.47-19.235-10.51Zm-47.082.063 18.522 8.97-13.524 7.479-18.54-9.147Zm-52.89 3.086 17.97 9.046-14.103 7.54-17.977-9.223Zm-56.002 4.468 17.406 9.153-14.748 7.63-17.399-9.334 14.74-7.449Zm-95.065 1.989 10.834 6.11-15.72 7.606-10.813-6.23 15.7-7.486Zm43.006.273 16.832 9.207-15.31 7.678-16.815-9.39Zm142.58.09 18.547 9.209-13.885 7.68-18.562-9.393Zm-53.66 3.168 17.979 9.287-14.485 7.742-17.978-9.47 14.484-7.56Zm-56.855 4.586 17.394 9.398-15.146 7.836-17.383-9.586Zm-96.37 2.039 10.805 6.273-16.152 7.817-10.78-6.4Zm43.559.285 16.807 9.453-15.729 7.885-16.78-9.645Zm144.469.092 18.566 9.457-14.27 7.89-18.577-9.646 14.28-7.701Zm-54.453 3.252 17.98 9.537-14.879 7.955-17.976-9.73Zm-57.737 4.709 17.38 9.652-15.563 8.053-17.362-9.848Zm-97.716 2.093 10.771 6.446-16.596 8.029-10.744-6.576Zm44.134.291 16.772 9.713-16.16 8.104-16.74-9.91Zm146.4.1 18.58 9.717-14.655 8.103-18.586-9.912 14.662-7.908Zm-55.261 3.338 17.975 9.797-15.291 8.176-17.967-9.998Zm-58.647 4.838 17.356 9.918-15.994 8.277-17.332-10.123Zm-99.103 2.148 10.732 6.623-17.056 8.254-10.701-6.76Zm193.117.405 18.588 9.984-15.072 8.334-18.588-10.19Zm-149.676.527 16.727 9.998-39.918 20.012-16.63-10.494Zm93.575 2.9 17.962 10.07-15.718 8.405-17.95-10.28Zm-59.58 4.971 17.321 10.195-16.447 8.51-17.293-10.406 16.418-8.299Zm95.232 2.63 18.588 10.263-15.492 8.566-18.584-10.477 15.488-8.351Zm-200.512 1.845 10.678 6.843-17.637 8.536-10.64-6.99 17.6-8.39Zm143.551 1.673 17.945 10.354-16.168 8.643-17.923-10.57Zm-60.668 5.17 17.283 10.487-6.394 3.308 24.062 14.73-22.566 12.065-41.22-26.013Zm96.613 2.645 18.582 10.555-15.945 8.816-18.572-10.777Zm48.022 1.619 19.236 10.596-18.933 10.842-19.243-10.872Zm-251.397.275 10.625 7.041-18.142 8.78-10.58-7.192Zm43.85 1.418 16.598 10.641-17.725 8.887-16.543-10.867 17.67-8.66Zm101.672.305 17.918 10.649-16.633 8.89-17.89-10.873Zm35.797 8.277 18.566 10.866-55.857 30.886-18.493-11.67Zm-205.875 1.71 10.564 7.244-18.672 9.033-10.513-7.4 18.62-8.878Zm44.431 1.458 16.522 10.95-18.242 9.144-16.46-11.183 18.18-8.91Zm205.88.864 19.24 10.97-19.604 11.227-19.236-11.262Zm-159.366 1.838 17.187 11.02-17.79 9.204-17.14-11.258Zm-71.184 9.388 16.438 11.27-18.785 9.418-16.365-11.518Zm47.11 2.78 17.119 11.343-18.32 9.48-17.063-11.593Zm156.894.804 19.233 11.365-20.328 11.64-19.215-11.673Zm-234.658 11.44 16.317 11.674-19.47 9.761-16.234-11.935Zm52.979.283 17.04 11.682-18.876 9.767-16.973-11.943Zm154.171 3.625 19.21 11.781-21.075 12.068-19.181-12.105Zm-233.459 8.984 16.204 12.03-20.069 10.06-16.11-12.303 19.976-9.787Zm48.473 2.965 16.926 12.111-19.576 10.131-16.848-12.386Zm102.963 3.281 18.416 12.203-18.459 10.208-18.37-12.481Zm49.336 3.008 19.164 12.287-17.947 10.278-19.135-12.567Zm-227.879 4.03 16.072 12.4-20.691 10.375-15.969-12.686 20.588-10.09Zm49.117 3.056 16.819 12.486-20.192 10.448-16.726-12.776 20.1-10.158Zm49.457 3.076 17.57 12.575-19.677 10.519-17.496-12.863 19.603-10.23Zm104.987 3.407 19.119 12.67-18.516 10.601-19.08-12.963Zm-231.504 4.156 15.93 12.787-21.348 10.701L4.281 243.65l21.23-10.402Zm49.779 3.15 16.693 12.877-20.832 10.78-16.59-13.18Zm50.129 3.174 17.469 12.969-20.309 10.855-17.38-13.273Zm50.48 3.195 18.254 13.06-19.773 10.934-18.186-13.369Zm56.04.317 19.062 13.068-19.11 10.943-19.011-13.378 19.058-10.633Zm-184.786 7.537 39.705 31.873-21.656 11.578-39.44-32.64Zm50.819 3.273 17.35 13.383-20.968 11.21-17.25-13.704Zm51.18 3.297 18.158 13.48-20.418 11.292-18.077-13.805 20.336-10.967Zm51.548 3.32 18.977 13.579-47.487 27.191-18.81-14.365Zm-79.154 11.569L139.592 286l-21.094 11.662-17.951-14.26Zm-28.51 15.373 43.01 34.525-21.943 12.567-42.762-35.393 21.695-11.7Zm53.031 3.543 18.784 14.488-21.215 12.149-18.694-14.85Z"/></svg>